<svg fill="none" xmlns="http://www.w3.org/2000/svg" viewBox="0 0 80 78"><g opacity=".3" fill="#DFA403"><path d="M35.014 44.655c0-3.66-2.984-6.628-6.665-6.628s-6.665 2.967-6.665 6.628 2.984 6.629 6.665 6.629c3.68 0 6.665-2.968 6.665-6.629zM53.33 38.027c-3.68 0-6.665 2.967-6.665 6.628s2.984 6.629 6.665 6.629 6.665-2.968 6.665-6.629c0-3.66-2.984-6.628-6.665-6.628z"/><path fill-rule="evenodd" clip-rule="evenodd" d="M40 69.785c-4.032 0-7.635 1.647-10.949 5.453a4.015 4.015 0 01-5.642.403 3.963 3.963 0 01-.405-5.612c4.61-5.296 10.323-8.2 16.996-8.2 6.672 0 12.388 2.903 17.01 8.196a3.963 3.963 0 01-.398 5.612 4.015 4.015 0 01-5.643-.395c-3.326-3.81-6.936-5.457-10.969-5.457zM78.31 33.756a5.332 5.332 0 01.184 7.607 5.469 5.469 0 01-3.945 1.668 5.471 5.471 0 01-3.758-1.486l-30.792-28.97-30.79 28.97a5.477 5.477 0 01-3.76 1.486 5.476 5.476 0 01-3.945-1.668 5.334 5.334 0 01.186-7.607l8.11-7.63V5.39C9.8 2.446 12.22.053 15.207.053c2.988 0 5.41 2.393 5.41 5.338v10.557l15.38-14.472a5.47 5.47 0 014-1.47 5.46 5.46 0 014.005 1.47l34.308 32.28z"/></g></svg>